<svg width="640" height="480" xmlns="http://www.w3.org/2000/svg" xmlns:svg="http://www.w3.org/2000/svg">
 <!-- Created with SVG-edit - https://github.com/SVG-Edit/svgedit-->
 <g class="layer">
  <title>Layer 1</title>
  <ellipse cx="311.2" cy="221.4" fill="#1dbaa7" id="svg_1" rx="162" ry="156" stroke="#000000" stroke-width="0"/>
  <rect fill="#18a08e" height="77" id="svg_2" stroke="#000000" stroke-width="0" width="351" x="135.2" y="117.4"/>
  <ellipse cx="223.2" cy="212.4" fill="#000000" id="svg_3" rx="26" ry="11" stroke="#000000" stroke-width="0" transform="matrix(1 0 0 1 0 0)"/>
  <ellipse cx="387.8" cy="211.3" fill="#000000" id="svg_4" rx="26" ry="11" stroke="#000000" stroke-width="0" transform="matrix(1 0 0 1 0 0)"/>
  <ellipse cx="302.2" cy="291.4" fill="#18a08e" id="svg_6" rx="19" ry="38" stroke="#000000" stroke-width="0" transform="matrix(1 0 0 1 0 0)"/>
  <ellipse cx="212.81" cy="212.57" fill="#ffffff" id="svg_7" rx="9" ry="10.5" stroke="#000000" stroke-width="0" transform="matrix(1 0 0 1 0 0)"/>
  <ellipse cx="379.17" cy="211.53" fill="#ffffff" id="svg_9" rx="9" ry="10.5" stroke="#000000" stroke-width="0" transform="matrix(1 0 0 1 0 0)"/>
 </g>
</svg>